ffmpeg version 4.2.7-0ubuntu0.1 Copyright (c) 2000-2022 the FFmpeg developers
  built with gcc 9 (Ubuntu 9.4.0-1ubuntu1~20.04.1)
  configuration: --prefix=/usr --extra-version=0ubuntu0.1 --toolchain=hardened --libdir=/usr/lib/x86_64-linux-gnu --incdir=/usr/include/x86_64-linux-gnu --arch=amd64 --enable-gpl --disable-stripping --enable-avresample --disable-filter=resample --enable-avisynth --enable-gnutls --enable-ladspa --enable-libaom --enable-libass --enable-libbluray --enable-libbs2b --enable-libcaca --enable-libcdio --enable-libcodec2 --enable-libflite --enable-libfontconfig --enable-libfreetype --enable-libfribidi --enable-libgme --enable-libgsm --enable-libjack --enable-libmp3lame --enable-libmysofa --enable-libopenjpeg --enable-libopenmpt --enable-libopus --enable-libpulse --enable-librsvg --enable-librubberband --enable-libshine --enable-libsnappy --enable-libsoxr --enable-libspeex --enable-libssh --enable-libtheora --enable-libtwolame --enable-libvidstab --enable-libvorbis --enable-libvpx --enable-libwavpack --enable-libwebp --enable-libx265 --enable-libxml2 --enable-libxvid --enable-libzmq --enable-libzvbi --enable-lv2 --enable-omx --enable-openal --enable-opencl --enable-opengl --enable-sdl2 --enable-libdc1394 --enable-libdrm --enable-libiec61883 --enable-nvenc --enable-chromaprint --enable-frei0r --enable-libx264 --enable-shared
  libavutil      56. 31.100 / 56. 31.100
  libavcodec     58. 54.100 / 58. 54.100
  libavformat    58. 29.100 / 58. 29.100
  libavdevice    58.  8.100 / 58.  8.100
  libavfilter     7. 57.100 /  7. 57.100
  libavresample   4.  0.  0 /  4.  0.  0
  libswscale      5.  5.100 /  5.  5.100
  libswresample   3.  5.100 /  3.  5.100
  libpostproc    55.  5.100 / 55.  5.100
Routing option strict to both codec and muxer layer
[mov,mp4,m4a,3gp,3g2,mj2 @ 0x55d3b3932200] Unhandled or malformed custom metadata of size 64
[h264 @ 0x55d3b3933d40] Reinit context to 1280x720, pix_fmt: yuv420p
Input #0, mov,mp4,m4a,3gp,3g2,mj2, from '/var/www/html/project/media/video/original/Il_mio_video_3.mp4':
  Metadata:
    major_brand     : mp42
    minor_version   : 512
    compatible_brands: mp42isom
    creation_time   : 2022-12-01T11:22:55.000000Z
    media_type      : 0
    season_number   : 0
    episode_sort    : 0
    hd_video        : 0
    iTunMOVI        : <?xml version="1.0" encoding="UTF-8"?><!DOCTYPE plist PUBLIC "-//Apple Computer//DTD PLIST 1.0//EN"  "http://www.apple.com/DTDs/PropertyList-1.0.dtd"><plist version="1.0"><dict><key>studio</key><string>studio</string><key>cast</key><array><dict><key>name<
  Duration: 00:04:03.00, start: 0.000000, bitrate: 10036 kb/s
    Stream #0:0(eng): Video: h264 (Baseline), 1 reference frame (avc1 / 0x31637661), yuv420p(tv, bt2020nc/bt2020/arib-std-b67, left), 1280x720, 9861 kb/s, 25 fps, 25 tbr, 2500 tbn, 5k tbc (default)
    Metadata:
      creation_time   : 2022-12-01T11:22:55.000000Z
      handler_name    : VideoHandler
      encoder         : h264
    Stream #0:1(eng): Audio: aac (LC) (mp4a / 0x6134706D), 44100 Hz, stereo, fltp, 160 kb/s (default)
    Metadata:
      creation_time   : 2022-12-01T11:22:55.000000Z
      handler_name    : SoundHandler
Input #1, png_pipe, from '/var/www/html/project/static/images/templates/logo.png':
  Duration: N/A, bitrate: N/A
    Stream #1:0: Video: png, 1 reference frame, rgba(pc), 1920x1080 [SAR 2835:2835 DAR 16:9], 25 tbr, 25 tbn, 25 tbc
[Parsed_scale_0 @ 0x55d3b39b0580] w:1280 h:720 flags:'bilinear' interl:0
[Parsed_scale_2 @ 0x55d3b3938640] w:1280 h:720 flags:'bilinear' interl:0
Stream mapping:
  Stream #0:0 (h264) -> scale (graph 0)
  Stream #1:0 (png) -> scale (graph 0)
  overlay (graph 0) -> Stream #0:0 (libx264)
  Stream #0:1 -> #0:1 (aac (native) -> aac (native))
Press [q] to stop, [?] for help
[h264 @ 0x55d3b39af0c0] Reinit context to 1280x720, pix_fmt: yuv420p
[graph_1_in_0_1 @ 0x55d3b3d10940] tb:1/44100 samplefmt:fltp samplerate:44100 chlayout:0x3
[Parsed_scale_0 @ 0x55d3b4321200] w:1280 h:720 flags:'bilinear' interl:0
[Parsed_scale_2 @ 0x55d3b4324c80] w:1280 h:720 flags:'bilinear' interl:0
[graph 0 input from stream 0:0 @ 0x55d3b4327100] w:1280 h:720 pixfmt:yuv420p tb:1/2500 fr:25/1 sar:0/1 sws_param:flags=2
[graph 0 input from stream 1:0 @ 0x55d3b4328180] w:1920 h:1080 pixfmt:rgba tb:1/25 fr:25/1 sar:2835/2835 sws_param:flags=2
[Parsed_scale_0 @ 0x55d3b4321200] w:1280 h:720 fmt:yuv420p sar:0/1 -> w:1280 h:720 fmt:yuv420p sar:0/1 flags:0x2
[Parsed_setsar_1 @ 0x55d3b3d11800] w:1280 h:720 sar:0/1 dar:16/9 -> sar:1/1 dar:16/9
[Parsed_scale_2 @ 0x55d3b4324c80] w:1920 h:1080 fmt:rgba sar:2835/2835 -> w:1280 h:720 fmt:yuva420p sar:1/1 flags:0x2
[Parsed_setsar_3 @ 0x55d3b4325780] w:1280 h:720 sar:1/1 dar:16/9 -> sar:1/1 dar:16/9
[Parsed_overlay_4 @ 0x55d3b4326400] main w:1280 h:720 fmt:yuv420p overlay w:1280 h:720 fmt:yuva420p
[Parsed_overlay_4 @ 0x55d3b4326400] [framesync @ 0x55d3b4326528] Selected 1/2500 time base
[Parsed_overlay_4 @ 0x55d3b4326400] [framesync @ 0x55d3b4326528] Sync level 2
[libx264 @ 0x55d3b39b8b40] using SAR=1/1
[libx264 @ 0x55d3b39b8b40] using cpu capabilities: MMX2 SSE2Fast SSSE3 SSE4.2 AVX FMA3 BMI2 AVX2
[libx264 @ 0x55d3b39b8b40] profile High, level 3.1
[libx264 @ 0x55d3b39b8b40] 264 - core 155 r2917 0a84d98 - H.264/MPEG-4 AVC codec - Copyleft 2003-2018 - http://www.videolan.org/x264.html - options: cabac=1 ref=1 deblock=1:0:0 analyse=0x3:0x113 me=hex subme=2 psy=1 psy_rd=1.00:0.00 mixed_ref=0 me_range=16 chroma_me=1 trellis=0 8x8dct=1 cqm=0 deadzone=21,11 fast_pskip=1 chroma_qp_offset=0 threads=22 lookahead_threads=5 sliced_threads=0 nr=0 decimate=1 interlaced=0 bluray_compat=0 constrained_intra=0 bframes=3 b_pyramid=2 b_adapt=1 b_bias=0 direct=1 weightb=1 open_gop=0 weightp=1 keyint=250 keyint_min=25 scenecut=40 intra_refresh=0 rc_lookahead=10 rc=crf mbtree=1 crf=18.0 qcomp=0.60 qpmin=0 qpmax=69 qpstep=4 ip_ratio=1.40 aq=1:1.00
Output #0, mp4, to '/var/www/html/project/media/video/watermarks/Il_mio_video_3.mp4':
  Metadata:
    major_brand     : mp42
    minor_version   : 512
    compatible_brands: mp42isom
    iTunMOVI        : <?xml version="1.0" encoding="UTF-8"?><!DOCTYPE plist PUBLIC "-//Apple Computer//DTD PLIST 1.0//EN"  "http://www.apple.com/DTDs/PropertyList-1.0.dtd"><plist version="1.0"><dict><key>studio</key><string>studio</string><key>cast</key><array><dict><key>name<
    media_type      : 0
    season_number   : 0
    episode_sort    : 0
    hd_video        : 0
    encoder         : Lavf58.29.100
    Stream #0:0: Video: h264 (libx264), 1 reference frame (avc1 / 0x31637661), yuv420p, 1280x720 [SAR 1:1 DAR 16:9], q=-1--1, 25 fps, 12800 tbn, 25 tbc (default)
    Metadata:
      encoder         : Lavc58.54.100 libx264
    Side data:
      cpb: bitrate max/min/avg: 0/0/0 buffer size: 0 vbv_delay: -1
    Stream #0:1(eng): Audio: aac (LC) (mp4a / 0x6134706D), 44100 Hz, stereo, fltp, delay 1024, 128 kb/s (default)
    Metadata:
      creation_time   : 2022-12-01T11:22:55.000000Z
      handler_name    : SoundHandler
      encoder         : Lavc58.54.100 aac
[Parsed_overlay_4 @ 0x55d3b4326400] [framesync @ 0x55d3b4326528] Sync level 0
No more output streams to write to, finishing.
frame= 6074 fps= 85 q=-1.0 Lsize=  241952kB time=00:04:02.97 bitrate=8157.5kbits/s speed=3.41x    
[AVIOContext @ 0x55d3b39320c0] Statistics: 0 seeks, 141 writeouts
video:238078kB audio:3679kB subtitle:0kB other streams:0kB global headers:0kB muxing overhead: 0.080414%
Input file #0 (/var/www/html/project/media/video/original/Il_mio_video_3.mp4):
  Input stream #0:0 (video): 6074 packets read (299495977 bytes); 6074 frames decoded; 
  Input stream #0:1 (audio): 10465 packets read (4859937 bytes); 10464 frames decoded (10714560 samples); 
  Total: 16539 packets (304355914 bytes) demuxed
Input file #1 (/var/www/html/project/static/images/templates/logo.png):
  Input stream #1:0 (video): 1 packets read (111578 bytes); 1 frames decoded; 
  Total: 1 packets (111578 bytes) demuxed
Output file #0 (/var/www/html/project/media/video/watermarks/Il_mio_video_3.mp4):
  Output stream #0:0 (video): 6074 frames encoded; 6074 packets muxed (243792278 bytes); 
  Output stream #0:1 (audio): 10464 frames encoded (10714560 samples); 10465 packets muxed (3767057 bytes); 
  Total: 16539 packets (247559335 bytes) muxed
[AVIOContext @ 0x55d3b3938080] Statistics: 2 seeks, 948 writeouts
[libx264 @ 0x55d3b39b8b40] frame I:40    Avg QP:16.06  size:117296
[libx264 @ 0x55d3b39b8b40] frame P:2263  Avg QP:19.22  size: 65769
[libx264 @ 0x55d3b39b8b40] frame B:3771  Avg QP:19.95  size: 23937
[libx264 @ 0x55d3b39b8b40] consecutive B-frames: 14.3%  7.5%  4.1% 74.2%
[libx264 @ 0x55d3b39b8b40] mb I  I16..4: 17.7% 11.7% 70.6%
[libx264 @ 0x55d3b39b8b40] mb P  I16..4:  8.5%  9.9% 17.3%  P16..4: 22.9% 15.8% 16.3%  0.0%  0.0%    skip: 9.1%
[libx264 @ 0x55d3b39b8b40] mb B  I16..4:  2.4%  2.2%  3.7%  B16..8: 16.9% 10.5%  4.4%  direct:12.8%  skip:47.1%  L0:40.1% L1:30.3% BI:29.7%
[libx264 @ 0x55d3b39b8b40] 8x8 transform intra:26.9% inter:12.7%
[libx264 @ 0x55d3b39b8b40] coded y,uvDC,uvAC intra: 70.9% 43.1% 13.6% inter: 31.6% 21.7% 1.4%
[libx264 @ 0x55d3b39b8b40] i16 v,h,dc,p: 37% 28% 23% 12%
[libx264 @ 0x55d3b39b8b40] i8 v,h,dc,ddl,ddr,vr,hd,vl,hu: 19% 37% 20%  4%  4%  3%  5%  3%  5%
[libx264 @ 0x55d3b39b8b40] i4 v,h,dc,ddl,ddr,vr,hd,vl,hu: 16% 25% 17%  7%  7%  5%  9%  5%  9%
[libx264 @ 0x55d3b39b8b40] i8c dc,h,v,p: 55% 22% 17%  6%
[libx264 @ 0x55d3b39b8b40] Weighted P-Frames: Y:9.6% UV:2.8%
[libx264 @ 0x55d3b39b8b40] kb/s:8027.38
[aac @ 0x55d3b39ac340] Qavg: 2606.969
[AVIOContext @ 0x55d3b393b040] Statistics: 304585306 bytes read, 1 seeks
[AVIOContext @ 0x55d3b39435c0] Statistics: 111578 bytes read, 0 seeks
